<svg width="96" height="81" xmlns="http://www.w3.org/2000/svg" xmlns:xlink="http://www.w3.org/1999/xlink" xml:space="preserve" overflow="hidden"><defs><clipPath id="clip0"><rect x="0" y="0" width="96" height="81"/></clipPath></defs><g clip-path="url(#clip0)"><path d="M87.5662 46.7683C87.5662 43.4846 84.8795 40.7979 81.5958 40.7979L62.6894 40.7979C61.0973 40.7979 59.8037 39.5043 59.7042 37.9122 59.8037 36.1211 62.6894 32.5388 62.6894 18.9063 62.6894 15.6226 60.0027 12.9359 56.719 12.9359 53.4353 12.9359 50.7486 15.6226 50.7486 18.9063 50.7486 34.0314 33.1358 42.589 32.8373 42.788L32.8373 74.6303C39.9023 74.6303 40.3999 82.5908 53.7338 82.5908 58.2116 82.5908 71.6451 82.5908 71.6451 82.5908 74.9288 82.5908 77.6155 79.9042 77.6155 76.6204 77.6155 75.0283 77.0184 73.6352 76.0234 72.6401 76.2224 72.6401 76.4214 72.6401 76.6204 72.6401 79.9042 72.6401 82.5908 69.9534 82.5908 66.6697 82.5908 65.0776 81.9938 63.585 80.8992 62.4904 83.5859 61.8934 85.576 59.5052 85.576 56.719 85.576 55.0274 84.8795 53.4353 83.6854 52.3407 85.9741 51.5446 87.5662 49.3555 87.5662 46.7683Z" fill="#0070C0" transform="matrix(1.00495 0 0 1 0 -5.58832)"/><path d="M22.8866 37.8127 7.96056 37.8127 7.96056 79.6056 22.8866 79.6056C25.0758 79.6056 26.8669 77.8145 26.8669 75.6253L26.8669 41.793C26.8669 39.6038 25.0758 37.8127 22.8866 37.8127Z" fill="#0070C0" transform="matrix(1.00495 0 0 1 0 -5.58832)"/></g></svg>